# xmcd
#
# Track frame offsets:
#	150
#	27584
#	46429
#	63092
#	90782
#	107135
#	123195
#	141009
#	159407
#	173833
#	194448
#	206087
#	221614
#	234759
#
# Disc length: 3300 seconds
#
# Revision: 0
# Processed by: cddbd v1.5.2PL0 Copyright (c) Steve Scherf et al.
# Submitted via: audiograbber 1.83.01
#
DISCID=b80ce20e
DTITLE=Découvertes Country - Mix Vol.1
DYEAR=2007
DGENRE=Country
TTITLE0=Nathalie Carbonneau - Je L'aimerai
TTITLE1=Louis Bérubé - Prends
TTITLE2=Chantal Cliche - Un Point C'est Tout
TTITLE3=Tahiana - Love And Respect
TTITLE4=Desert Heat - Gonna Getcha Back
TTITLE5=Steve Surprenant - If You Love Me (G.Bribosia)
TTITLE6=La Meute - St-Rien
TTITLE7=Louis Bérubé - Un Dernier Baiser
TTITLE8=Patricia Caron - Laisse-Moi (Bourbon Gauthier)
TTITLE9=Steve Aulis - Walking In The Rain
TTITLE10=Karo and Christian - Petit Michel
TTITLE11=Georges Hamel - Mon Petit Frère
TTITLE12=Marie Chantal Cartier - Ma Dernière Lettre D'amour
TTITLE13=Tahiana - The Girl You Used To Know
EXTD=
EXTT0=
EXTT1=
EXTT2=
EXTT3=
EXTT4=
EXTT5=
EXTT6=
EXTT7=
EXTT8=
EXTT9=
EXTT10=
EXTT11=
EXTT12=
EXTT13=
PLAYORDER=
